<?xml version="1.0" encoding="utf-8"?>
<!-- Generator: Adobe Illustrator 22.0.0, SVG Export Plug-In . SVG Version: 6.00 Build 0)  -->
<svg version="1.1" id="图层_1" xmlns="http://www.w3.org/2000/svg" xmlns:xlink="http://www.w3.org/1999/xlink" x="0px" y="0px"
	 viewBox="0 0 37 35" style="enable-background:new 0 0 37 35;" xml:space="preserve">
<style type="text/css">
	.st0{fill:#FFFFFF;}
</style>
<title>icon-logo4</title>
<desc>Created with Sketch.</desc>
<g>
	<path class="st0" d="M18.5,0.2C9,0.2,1.2,8,1.2,17.5C1.2,27,9,34.8,18.5,34.8c9.5,0,17.3-7.7,17.3-17.3C35.8,8,28,0.2,18.5,0.2z
		 M27.3,20.4l-2,0.6l0.6,1.9c0.3,0.9-0.2,1.9-1.1,2.1l0,0c-0.9,0.3-1.9-0.2-2.1-1.1l-0.6-1.9l-3.7,1.1l0.6,2
		c0.3,0.9-0.2,1.9-1.1,2.1l0,0c-0.9,0.3-1.9-0.2-2.1-1.1l-0.6-2L13,24.9c-0.9,0.3-1.9-0.2-2.1-1.1l0,0c-0.3-0.9,0.2-1.9,1.1-2.1
		l1.9-0.6l-1.1-3.7l-2,0.6c-0.9,0.3-1.9-0.2-2.1-1.1l0,0c-0.3-0.9,0.2-1.9,1.1-2.1l2-0.6L11.1,12c-0.3-0.9,0.2-1.9,1.1-2.1l0,0
		c0.9-0.3,1.9,0.2,2.1,1.1l0.6,1.9l3.7-1.1l-0.6-2c-0.3-0.9,0.2-1.9,1.1-2.1l0,0c0.9-0.3,1.9,0.2,2.1,1.1l0.6,2l1.9-0.6
		c0.9-0.3,1.9,0.2,2.1,1.1l0,0c0.3,0.9-0.2,1.9-1.1,2.1l-1.9,0.6l1.1,3.7l2-0.6c0.9-0.3,1.9,0.2,2.1,1.1l0,0
		C28.7,19.2,28.2,20.1,27.3,20.4z"/>
	<rect x="16.6" y="15.6" transform="matrix(0.9545 -0.2982 0.2982 0.9545 -4.3765 6.3123)" class="st0" width="3.9" height="3.9"/>
</g>
</svg>
