<?xml version="1.0" encoding="utf-8"?>
<!-- Generator: Adobe Illustrator 22.0.0, SVG Export Plug-In . SVG Version: 6.00 Build 0)  -->
<svg version="1.1" id="图层_1" xmlns="http://www.w3.org/2000/svg" xmlns:xlink="http://www.w3.org/1999/xlink" x="0px" y="0px"
	 viewBox="0 0 38 37" style="enable-background:new 0 0 38 37;" xml:space="preserve">
<style type="text/css">
	.st0{fill:#FFFFFF;}
</style>
<title>icon-logo5</title>
<desc>Created with Sketch.</desc>
<path class="st0" d="M22.8,23.7c0.2,0.2,0.2,0.4,0,0.6c-0.8,0.8-2.1,1.2-4,1.2c-1.8,0-3.1-0.4-4-1.2c-0.2-0.2-0.2-0.4,0-0.6
	c0.1-0.1,0.2-0.1,0.3-0.1c0.1,0,0.2,0,0.3,0.1c0.6,0.7,1.8,1,3.4,1c1.6,0,2.7-0.3,3.4-1c0.1-0.1,0.2-0.1,0.3-0.1
	C22.6,23.5,22.7,23.6,22.8,23.7L22.8,23.7z M16.7,20.1c0,0.5-0.2,0.9-0.5,1.3s-0.8,0.5-1.3,0.5c-0.5,0-0.9-0.2-1.3-0.5
	s-0.5-0.8-0.5-1.3c0-0.5,0.2-0.9,0.5-1.3s0.8-0.5,1.3-0.5c0.5,0,0.9,0.2,1.3,0.5C16.5,19.1,16.7,19.6,16.7,20.1L16.7,20.1z
	 M24.6,20.1c0,0.5-0.2,0.9-0.5,1.3c-0.4,0.3-0.8,0.5-1.3,0.5s-0.9-0.2-1.3-0.5S21,20.5,21,20.1c0-0.5,0.2-0.9,0.5-1.3
	s0.8-0.5,1.3-0.5c0.5,0,0.9,0.2,1.3,0.5C24.4,19.1,24.6,19.6,24.6,20.1L24.6,20.1z M29.6,17.7c0-0.7-0.2-1.2-0.7-1.7
	c-0.5-0.5-1-0.7-1.7-0.7c-0.7,0-1.2,0.2-1.7,0.7c-1.7-1.2-3.8-1.8-6.2-1.9l1.3-5.6l4,0.9c0,0.5,0.2,0.9,0.5,1.3s0.8,0.5,1.3,0.5
	s0.9-0.2,1.3-0.5c0.4-0.4,0.5-0.8,0.5-1.3c0-0.5-0.2-0.9-0.5-1.3c-0.4-0.4-0.8-0.5-1.3-0.5c-0.7,0-1.2,0.3-1.6,1l-4.4-1
	c-0.3-0.1-0.4,0-0.5,0.3l-1.4,6.2C16,14.2,14,14.8,12.3,16c-0.5-0.5-1-0.7-1.7-0.7c-0.7,0-1.2,0.2-1.7,0.7c-0.5,0.5-0.7,1-0.7,1.7
	c0,0.5,0.1,0.9,0.4,1.3c0.2,0.4,0.6,0.7,1,0.9c-0.1,0.4-0.1,0.7-0.1,1.1c0,1.9,0.9,3.5,2.8,4.8s4.1,2,6.7,2c2.6,0,4.9-0.7,6.7-2
	c1.9-1.3,2.8-3,2.8-4.8c0-0.4,0-0.8-0.1-1.1c0.4-0.2,0.7-0.5,1-0.9C29.4,18.6,29.6,18.1,29.6,17.7L29.6,17.7z M36.7,18.3
	c0,2.4-0.5,4.7-1.4,6.9c-0.9,2.2-2.2,4.1-3.8,5.7s-3.5,2.9-5.7,3.8s-4.5,1.4-6.9,1.4c-2.4,0-4.7-0.5-6.9-1.4s-4.1-2.2-5.7-3.8
	s-2.9-3.5-3.8-5.7S1,20.7,1,18.3s0.5-4.7,1.4-6.9s2.2-4.1,3.8-5.7s3.5-2.9,5.7-3.8s4.5-1.4,6.9-1.4s4.7,0.5,6.9,1.4s4.1,2.2,5.7,3.8
	s2.9,3.5,3.8,5.7C36.2,13.5,36.7,15.8,36.7,18.3L36.7,18.3z"/>
</svg>
