<?xml version="1.0" encoding="utf-8"?>
<!-- Generator: Adobe Illustrator 22.0.0, SVG Export Plug-In . SVG Version: 6.00 Build 0)  -->
<svg version="1.1" id="图层_1" xmlns="http://www.w3.org/2000/svg" xmlns:xlink="http://www.w3.org/1999/xlink" x="0px" y="0px"
	 viewBox="0 0 38 38" style="enable-background:new 0 0 38 38;" xml:space="preserve">
<style type="text/css">
	.st0{fill:#FFFFFF;}
</style>
<title>icon-logo1</title>
<desc>Created with Sketch.</desc>
<path class="st0" d="M19,36.5c-9.9,0-17.9-8-17.9-17.9S9.1,0.6,19,0.6s17.9,8,17.9,17.9S28.8,36.5,19,36.5z M28.7,11.3
	c-0.8,0.5-1.6,0.8-2.5,1c-0.7-0.8-1.7-1.4-2.9-1.4c-2.2,0-3.9,1.8-3.9,4.1c0,0.3,0,0.7,0.1,1c-3.3-0.2-6.2-1.9-8.1-4.5
	c-0.3,0.6-0.5,1.4-0.5,2.1c0,1.5,0.7,2.8,1.7,3.5c-0.7,0-1.2-0.2-1.8-0.6v0.1c0,2.1,1.4,3.8,3.2,4.2c-0.3,0.1-0.7,0.1-1,0.1
	c-0.3,0-0.5,0-0.7-0.1c0.5,1.7,2,2.9,3.7,3c-1.4,1.1-3,1.8-4.9,1.8c-0.3,0-0.6,0-0.9-0.1c1.7,1.2,3.8,1.9,6,1.9
	c7.2,0,11.2-6.4,11.2-11.9c0-0.2,0-0.4,0-0.5c0.8-0.6,1.4-1.3,2-2.1c-0.7,0.3-1.5,0.5-2.3,0.6C27.8,13.1,28.4,12.2,28.7,11.3
	L28.7,11.3z"/>
</svg>
