<?xml version="1.0" encoding="utf-8"?>
<!-- Generator: Adobe Illustrator 22.0.0, SVG Export Plug-In . SVG Version: 6.00 Build 0)  -->
<svg version="1.1" id="图层_1" xmlns="http://www.w3.org/2000/svg" xmlns:xlink="http://www.w3.org/1999/xlink" x="0px" y="0px"
	 viewBox="0 0 38 38" style="enable-background:new 0 0 38 38;" xml:space="preserve">
<style type="text/css">
	.st0{fill:#FFFFFF;enable-background:new    ;}
</style>
<title>icon-logo3</title>
<desc>Created with Sketch.</desc>
<path class="st0" d="M25,27.4l2.9-13.8c0.1-0.6,0-1-0.2-1.3c-0.3-0.3-0.6-0.3-1-0.1L9.5,18.8c-0.4,0.1-0.6,0.3-0.8,0.5
	c-0.1,0.2-0.2,0.4,0,0.5s0.3,0.3,0.6,0.4l4.4,1.4l10.2-6.4c0.3-0.2,0.5-0.2,0.6-0.1c0.1,0.1,0.1,0.2-0.1,0.3l-8.3,7.5l-0.3,4.5
	c0.3,0,0.6-0.1,0.9-0.4l2.2-2.1l4.5,3.3C24.2,28.6,24.8,28.3,25,27.4L25,27.4z M37,19.2c0,2.4-0.5,4.7-1.4,6.9
	c-0.9,2.2-2.2,4.1-3.8,5.7c-1.6,1.6-3.5,2.9-5.7,3.8c-2.2,0.9-4.5,1.4-6.9,1.4s-4.7-0.5-6.9-1.4s-4.1-2.2-5.7-3.8
	c-1.6-1.6-2.9-3.5-3.8-5.7c-0.9-2.2-1.4-4.5-1.4-6.9s0.5-4.7,1.4-6.9s2.2-4.1,3.8-5.7s3.5-2.9,5.7-3.8s4.5-1.4,6.9-1.4
	c2.4,0,4.7,0.5,6.9,1.4s4.1,2.2,5.7,3.8c1.6,1.6,2.9,3.5,3.8,5.7C36.5,14.5,37,16.8,37,19.2L37,19.2z"/>
</svg>
