<?xml version="1.0" encoding="UTF-8"?>
<svg width="114px" height="36px" viewBox="0 0 114 36" version="1.1" xmlns="http://www.w3.org/2000/svg" xmlns:xlink="http://www.w3.org/1999/xlink">
    <!-- Generator: Sketch 50.2 (55047) - http://www.bohemiancoding.com/sketch -->
    <title>logo</title>
    <desc>Created with Sketch.</desc>
    <defs></defs>
    <g id="Page-1" stroke="none" stroke-width="1" fill="none" fill-rule="evenodd">
        <g id="home-1024" transform="translate(-448.000000, -22.000000)" fill="#FFFFFF">
            <g id="导航条">
                <g id="logo" transform="translate(448.000000, 22.000000)">
                    <path d="M5.84411321,1.70892537 C4.44331132,2.17155224 1.0620283,3.92964179 1.04750943,7.11107463 C1.05127358,9.53113433 1.08084906,17.666597 1.13569811,31.2880299 C1.13623585,31.3949552 1.13623585,31.4959701 1.13677358,31.5905373 C10.7622453,26.0793134 16.9354528,22.5443284 19.0240189,21.348806 C17.8985377,20.7018806 15.9089151,19.5568657 15.1942642,19.1452836 C14.9253962,19.3005672 14.4640189,19.5670746 13.8907925,19.8980597 C11.5016321,21.2778806 7.05348113,23.8457015 6.61683962,24.0944776 C6.4544434,24.1868955 6.2549434,24.1863582 6.09308491,24.091791 C5.93176415,23.9977612 5.83282075,23.8247463 5.83335849,23.6377612 C5.83389623,23.4357313 5.83550943,20.0334627 5.83712264,15.9219403 C5.83873585,10.540209 5.84142453,3.94253731 5.84411321,1.70892537 M0.616783019,33.0149552 C0.52590566,33.0149552 0.435566038,32.9913134 0.354367925,32.9445672 C0.192509434,32.8510746 0.0935660377,32.678597 0.0930283019,32.4916119 L0.0881886792,31.291791 C0.0328018868,17.6698209 0.00376415094,9.53328358 0,7.10946269 C0.0204339623,2.51543284 5.49996226,0.53758209 6.3689434,0.537044776 C6.50767925,0.537044776 6.64103774,0.59238806 6.7394434,0.691253731 C6.83838679,0.78958209 6.89323585,0.922835821 6.89269811,1.062 C6.89000943,2.15435821 6.88678302,9.82020896 6.88516981,15.9224776 C6.8835566,18.854597 6.88301887,21.4256418 6.8819434,22.734 C8.36017925,21.8823582 11.4951792,20.0721493 13.3665,18.9916119 C14.2828019,18.4623582 14.9130283,18.098597 14.9345377,18.0862388 C15.0974717,17.9938209 15.2969717,17.9954328 15.4582925,18.0894627 C15.6190755,18.1829552 20.2188679,20.8286866 20.3317925,20.8920896 C20.4947264,20.9834328 20.597434,21.1559104 20.5990472,21.3428955 C20.6011981,21.5298806 20.5044057,21.7039701 20.3436226,21.7996119 C20.3328679,21.8055224 20.3011415,21.8248657 1.54975472,32.5603881 L0.877584906,32.9456418 C0.796386792,32.9918507 0.706584906,33.0149552 0.616783019,33.0149552" id="Fill-1"></path>
                    <path d="M1.4345717,32.6338925 C2.45626981,33.6220119 5.5461,35.8486388 9.00051509,34.0389672 C10.9675528,32.908997 26.1123453,23.9906687 29.7216283,21.8645194 C28.8988925,21.3841612 27.4873358,20.5604597 25.7945434,19.5723403 C21.0366566,16.7949672 14.1853642,12.795206 11.7881377,11.398191 C11.7876,12.2960418 11.7881377,13.6312657 11.7881377,14.6752657 L11.7881377,15.9465493 C13.2873453,16.8126985 20.3419019,20.8817731 20.3849208,20.9064896 C20.547317,20.9994448 20.6478736,21.1719224 20.6478736,21.3594448 C20.6484113,21.5464299 20.5489302,21.7194448 20.3870717,21.8134746 C19.7364113,22.1901313 4.53461887,30.8650567 1.4345717,32.6338925 M6.30484528,35.7642806 C3.08380755,35.7642806 0.553760377,33.4554448 0.167128302,32.7413552 C0.0310811321,32.4909672 0.120345283,32.1782507 0.367703774,32.0369373 C0.525260377,31.947206 15.4071,23.4555045 19.0739208,21.3594448 C16.9676094,20.1440418 11.3563358,16.9072657 11.0003547,16.7004 C10.8384962,16.6063701 10.7400906,16.4333552 10.7406283,16.2469075 L10.7406283,14.6752657 C10.7400906,13.1299522 10.7395528,10.9479224 10.7417038,10.4863701 C10.7422415,10.2993851 10.8422604,10.1269075 11.0046566,10.0339522 C11.1659774,9.94099701 11.3654774,9.94153433 11.5284113,10.0350269 C12.4414868,10.5648179 20.7952132,15.4414746 26.3231377,18.6685791 C28.952666,20.2031463 30.9046472,21.3422507 31.0197226,21.4094149 C31.1805057,21.5029075 31.2799868,21.6743104 31.2805245,21.8602209 C31.2810623,22.0461313 31.1831943,22.2180716 31.0229491,22.3131761 C30.8422698,22.4195642 11.751034,33.666609 9.50491132,34.9561612 C8.40040189,35.5353851 7.31793962,35.7642806 6.30484528,35.7642806" id="Fill-3"></path>
                    <path d="M11.2466377,20.8368 L11.2504019,20.8368 L11.2466377,20.8368 Z M6.98346792,1.97978507 C6.97970377,5.61632239 6.9635717,19.0792478 6.95873208,22.717397 C7.43355283,22.4428299 8.06485472,22.0763821 8.6886283,21.7147701 L10.722883,20.5353672 L10.7239585,19.6428896 C10.7266472,16.9434269 10.7336377,10.8261134 10.7352509,10.4424716 C10.7357887,10.2560239 10.8358075,10.0835463 10.9982038,9.99059104 C11.1616755,9.89763582 11.3606377,9.89817313 11.5224962,9.99220299 C11.8779396,10.1985313 16.5175245,12.9087403 21.182383,15.6329194 C25.1519491,17.9514269 29.1403358,20.2806806 30.5180151,21.0850388 C31.0584396,19.7976358 31.9376377,16.4082627 27.7061943,13.9172776 C27.1512509,13.5954269 17.0547226,7.78008358 11.0218642,4.30527761 C9.26938302,3.29620299 7.82233585,2.46282985 6.98346792,1.97978507 Z M6.43390189,24.1504119 C6.34302453,24.1504119 6.25214717,24.1267701 6.17094906,24.0794866 C6.00909057,23.9854567 5.90960943,23.8124418 5.91014717,23.625994 C5.91068491,23.4293373 5.9375717,1.28987463 5.93703396,1.07709851 C5.93595849,0.889576119 6.03597736,0.715486567 6.19783585,0.621456716 C6.36023208,0.527964179 6.56026981,0.526352239 6.72374151,0.620919403 C6.7716,0.648859701 8.77627925,1.80408358 11.5450811,3.39882985 C17.5784774,6.87309851 27.6760811,12.6889791 28.2353264,13.0135164 C34.2197887,16.5361433 31.3267698,21.8539343 31.2004019,22.0785313 C31.1315717,22.2005015 31.0175717,22.2902328 30.8820623,22.3273075 C30.7470906,22.3638448 30.6019019,22.3455761 30.4809113,22.2751881 C30.1701,22.0951881 25.3987698,19.3081433 20.6527132,16.5366806 C16.9961094,14.4008597 13.3545623,12.2736358 11.7811472,11.3559045 C11.7784585,13.2386507 11.7741566,17.5097552 11.7720057,19.6439642 L11.7709302,20.8373373 C11.7703925,21.0237851 11.6703736,21.1962627 11.5090528,21.2897552 L9.2150717,22.6201433 C8.01000566,23.3186507 6.77966604,24.032203 6.69416604,24.0810985 C6.61350566,24.1273075 6.52370377,24.1504119 6.43390189,24.1504119 Z" id="Fill-5"></path>
                    <polygon id="Fill-7" points="40.0414245 27.5123284 42.7306415 27.5123284 42.7306415 8.78856716 40.0414245 8.78856716"></polygon>
                    <polygon id="Fill-9" points="47.0801179 11.9767701 47.0801179 27.5126507 49.671467 27.5126507 49.671467 15.9442925"></polygon>
                    <polygon id="Fill-10" points="58.9423557 8.78888955 58.9423557 22.8708 49.8051481 8.85981493 49.7589028 8.78888955 47.0799028 8.78888955 47.0799028 9.50566567 49.6717896 13.4731881 49.6717896 13.4183821 58.8084594 27.4411881 58.8552425 27.5126507 61.5337047 27.5126507 61.5337047 8.78888955"></polygon>
                    <path d="M76.3531132,17.5185134 C75.6277075,17.1805433 74.2806792,16.782394 72.3502075,16.3337373 C70.4563019,15.8947522 69.2759717,15.4654388 68.8398679,15.0586925 C68.4048396,14.6589313 68.1929717,14.162991 68.1929717,13.5418567 C68.1929717,12.8229313 68.4967925,12.2238269 69.1211038,11.7106925 C69.7459528,11.1970209 70.7687264,10.9364239 72.1609245,10.9364239 C73.4961226,10.9364239 74.5140566,11.2244239 75.1878396,11.7912896 C75.801934,12.3081851 76.1853396,13.0684836 76.3364434,14.0490806 L78.9611321,14.0490806 C78.9078962,12.9771403 78.6056887,12.0003045 78.0593491,11.1470507 C77.4979528,10.2701552 76.685434,9.59690149 75.6459906,9.14770746 C74.6151509,8.7012 73.4090094,8.47499104 72.0630566,8.47499104 C70.8397075,8.47499104 69.711,8.69045373 68.7086604,9.11546866 C67.695566,9.5453194 66.9136981,10.1841851 66.3851038,11.015409 C65.8565094,11.8450209 65.5892547,12.750394 65.5892547,13.7052 C65.5892547,14.5761851 65.8091887,15.3751701 66.2431415,16.0790507 C66.6760189,16.782394 67.3406604,17.3782746 68.2177075,17.8489612 C68.8882642,18.2143343 70.0669811,18.6054985 71.7194434,19.0127821 C73.3525472,19.4146925 74.4199528,19.7145134 74.8953113,19.9041851 C75.6153396,20.1852 76.1358679,20.5339164 76.4434528,20.9385134 C76.7467358,21.3409612 76.901066,21.8180955 76.901066,22.3575582 C76.901066,22.8911104 76.7397453,23.3908119 76.4214057,23.8432299 C76.1019906,24.2972597 75.6045849,24.6604836 74.9437075,24.9237672 C74.2720755,25.1913493 73.4842925,25.3267522 72.6018679,25.3267522 C71.6086698,25.3267522 70.7036604,25.1478269 69.9115755,24.7942746 C69.1270189,24.4450209 68.5425,23.982394 68.1736132,23.4203642 C67.8283868,22.8959463 67.6025377,22.2178567 67.488,21.4134985 L64.9031038,21.4134985 L64.9036415,21.4446627 C64.9375189,22.6987522 65.2768302,23.8389313 65.9140472,24.8340358 C66.5523396,25.8318269 67.4444434,26.5889015 68.5661604,27.0843045 C69.6787358,27.5770209 71.0736226,27.8263343 72.7121038,27.8263343 C74.0101981,27.8263343 75.1964434,27.5786328 76.2375,27.0891403 C77.2844717,26.5969612 78.0996792,25.8973791 78.66,25.0092 C79.2203208,24.1210209 79.5042453,23.1613791 79.5042453,22.1560657 C79.5042453,21.1421552 79.2445189,20.2324836 78.7320566,19.4517672 C78.2206698,18.6737373 77.4199811,18.0230507 76.3531132,17.5185134" id="Fill-11"></path>
                    <polygon id="Fill-12" points="85.6736887 14.0489731 85.6736887 11.2758985 96.2751509 11.2758985 96.2751509 8.78867463 82.9844717 8.78867463 82.9844717 14.0489731"></polygon>
                    <polygon id="Fill-13" points="82.9844717 27.5123284 96.6913585 27.5123284 96.6913585 25.0256418 82.9844717 25.0256418"></polygon>
                    <polygon id="Fill-14" points="85.6736887 22.4910269 85.6736887 19.0737134 95.6019057 19.0737134 95.6019057 16.5999224 82.9844717 16.5999224 82.9844717 22.4910269"></polygon>
                    <polygon id="Fill-15" points="102.929578 14.0489731 102.929578 11.2758985 113.531041 11.2758985 113.531041 8.78867463 100.239824 8.78867463 100.239824 14.0489731"></polygon>
                    <polygon id="Fill-16" points="100.239877 27.5123284 113.946764 27.5123284 113.946764 25.0256418 100.239877 25.0256418"></polygon>
                    <polygon id="Fill-17" points="102.929578 22.4910269 102.929578 19.0737134 112.857258 19.0737134 112.857258 16.5999224 100.239824 16.5999224 100.239824 22.4910269"></polygon>
                </g>
            </g>
        </g>
    </g>
</svg>